Coordinates
version=1
nRows=14
nColumns=40
inDegrees=yes

Units are S.I. units (second, meters, Newtons, ...)
Angles are in degrees.

endheader
time	pelvis_tilt	pelvis_list	pelvis_rotation	pelvis_tx	pelvis_ty	pelvis_tz	hip_flexion_r	hip_adduction_r	hip_rotation_r	knee_angle_r	knee_angle_r_beta	ankle_angle_r	subtalar_angle_r	mtp_angle_r	hip_flexion_l	hip_adduction_l	hip_rotation_l	knee_angle_l	knee_angle_l_beta	ankle_angle_l	subtalar_angle_l	mtp_angle_l	lumbar_extension	lumbar_bending	lumbar_rotation	arm_flex_r	arm_add_r	arm_rot_r	elbow_flex_r	pro_sup_r	wrist_flex_r	wrist_dev_r	arm_flex_l	arm_add_l	arm_rot_l	elbow_flex_l	pro_sup_l	wrist_flex_l	wrist_dev_l
     10.94328571	     -4.15780108	     -5.08828576	      6.94968964	      1.01452783	      0.92331928	      0.50710660	      1.38188680	      4.10761149	    -19.10957537	     11.96628583	     11.96628583	     16.16284652	      3.14864443	     -4.37954286	     28.97443282	     -7.01179567	     -0.70058243	     22.74618665	     22.74618665	      3.84986776	     -9.13968378	      5.32663822	     -8.99280434	      4.96017641	      3.83290070	     38.67873555	    -16.60874174	    -10.71748275	     72.96414647	     45.22838223	      0.00000000	      0.00000000	     -5.20687521	     -6.87807585	      0.86711891	     28.26079903	     45.28942927	      0.00000000	      0.00000000
     10.95657143	     -4.08437584	     -5.16982320	      6.64340455	      1.01609191	      0.92255760	      0.50564996	      0.88702611	      4.09588363	    -18.85582103	     12.11236781	     12.11236781	     16.51315302	      3.31339012	     -4.34976510	     28.53853816	     -7.03922699	     -0.59734333	     23.38587761	     23.38587761	      4.06815008	    -10.09358191	      5.09327457	     -8.85311784	      4.96999555	      3.94565925	     38.12749430	    -16.32648270	    -10.71285682	     72.28125560	     45.24955240	      0.00000000	      0.00000000	     -5.08078853	     -7.04841089	      0.86713037	     28.37783238	     45.29400654	      0.00000000	      0.00000000
     10.96985714	     -4.10807674	     -5.18500140	      6.34726612	      1.01745081	      0.92188939	      0.50393546	      0.61185461	      3.93014081	    -18.64360838	     12.50141796	     12.50141796	     17.08587706	      3.56987757	     -3.70722137	     28.10300793	     -6.82747141	      0.07651323	     23.72971958	     23.72971958	      3.94676015	    -11.88318921	      4.70073721	     -8.57546447	      4.88337574	      3.88614734	     37.96973973	    -15.84177959	    -10.99489871	     70.05343732	     45.33795919	      0.00000000	      0.00000000	     -4.99652066	     -7.25329664	      1.01347898	     28.62855282	     45.28766214	      0.00000000	      0.00000000
     10.98314286	     -4.05921189	     -5.18270965	      6.05238725	      1.01885558	      0.92147637	      0.50210710	      0.29519849	      3.73450728	    -18.39005965	     12.95007682	     12.95007682	     17.52312928	      3.66612441	     -3.22150895	     27.72797326	     -6.73656400	      0.33264237	     24.28832805	     24.28832805	      4.28183752	    -12.75883440	      4.38265279	     -8.43180377	      4.81345132	      3.76930475	     37.43379528	    -15.40809928	    -10.89844314	     68.77475290	     45.37847057	      0.00000000	      0.00000000	     -4.85311950	     -7.48719556	      1.09948318	     28.77469898	     45.29436093	      0.00000000	      0.00000000
     10.99642857	     -3.93974529	     -5.18459330	      5.79394557	      1.02021892	      0.92137428	      0.50012226	     -0.14532547	      3.56214567	    -18.12986653	     13.26414616	     13.26414616	     17.69118911	      3.70057729	     -3.25536055	     27.33190358	     -6.69017762	      0.45475241	     24.86809201	     24.86809201	      4.79718588	    -13.29523830	      4.16935564	     -8.45020209	      4.76818181	      3.64864789	     36.47758729	    -15.12108472	    -10.78888206	     68.30916040	     45.38596814	      0.00000000	      0.00000000	     -4.54117222	     -7.66501199	      1.08216169	     28.87613147	     45.30402689	      0.00000000	      0.00000000
     11.00971429	     -3.84060391	     -5.16556938	      5.55311927	      1.02145327	      0.92143602	      0.49786425	     -0.46112344	      3.30563753	    -17.89348466	     13.76268618	     13.76268618	     17.80713817	      3.65828124	     -3.27978967	     26.99635696	     -6.57736018	      0.67310604	     25.45395947	     25.45395947	      5.32090764	    -13.92264485	      4.02936188	     -8.45627729	      4.69547963	      3.57934434	     35.44485949	    -15.00103244	    -10.70773775	     67.63739554	     45.40134371	      0.00000000	      0.00000000	     -4.13512428	     -7.84595727	      1.06146753	     29.00482714	     45.31607695	      0.00000000	      0.00000000
     11.02300000	     -3.90693478	     -5.05339937	      5.28320189	      1.02231793	      0.92143300	      0.49528383	     -0.23998752	      2.78134643	    -17.63514150	     14.94271506	     14.94271506	     18.07067239	      3.43458309	     -3.27585297	     26.82768561	     -6.27117075	      1.03154519	     25.97224664	     25.97224664	      5.80956394	    -14.89044468	      4.39176579	     -8.27948816	      4.54024576	      3.88831337	     34.40975028	    -15.41346963	    -10.66106725	     66.08087632	     45.44908958	      0.00000000	      0.00000000	     -3.43324422	     -7.96701040	      1.06941412	     29.15198094	     45.33423395	      0.00000000	      0.00000000
     11.03628571	     -3.86886949	     -4.94136866	      5.03905541	      1.02324779	      0.92183760	      0.49255380	     -0.20235794	      2.27070784	    -17.45533838	     15.97417382	     15.97417382	     18.21701462	      3.34049735	     -3.23950298	     26.47653795	     -6.02613014	      1.13472737	     26.35063041	     26.35063041	      6.45192215	    -15.37357281	      4.79379786	     -8.25609910	      4.41018116	      3.83689343	     33.29232603	    -15.44586590	    -10.47770344	     64.71338463	     45.48419818	      0.00000000	      0.00000000	     -2.80775436	     -8.10683360	      1.10190868	     29.16899083	     45.34828453	      0.00000000	      0.00000000
     11.04957143	     -3.84816230	     -4.84197606	      4.79715859	      1.02408430	      0.92237364	      0.48961791	     -0.03605058	      1.71676040	    -17.29918043	     17.18704356	     17.18704356	     18.27246607	      3.26046667	     -3.30252494	     26.11419100	     -5.80461395	      1.09938630	     26.65557959	     26.65557959	      7.11208829	    -15.62123347	      5.25464443	     -8.21292678	      4.32632088	      3.80011115	     32.13079273	    -15.55703154	    -10.22412780	     63.24574638	     45.51958362	      0.00000000	      0.00000000	     -2.14455879	     -8.22245529	      1.12609170	     29.24768323	     45.36483396	      0.00000000	      0.00000000
     11.06285714	     -3.81673741	     -4.72822019	      4.54626171	      1.02485328	      0.92301066	      0.48656469	      0.23846970	      1.09529004	    -17.13902211	     18.60734823	     18.60734823	     18.23786059	      3.12543852	     -3.54478627	     25.67879993	     -5.59092456	      0.91296035	     26.84646194	     26.84646194	      7.74162462	    -15.73584847	      5.62387239	     -8.20614944	      4.23124189	      3.77021777	     30.90002696	    -15.71069114	     -9.92247717	     61.75697417	     45.55321376	      0.00000000	      0.00000000	     -1.46894673	     -8.34474901	      1.13056172	     29.43725005	     45.38342182	      0.00000000	      0.00000000
     11.07614286	     -3.76465137	     -4.59737476	      4.26199325	      1.02555805	      0.92376515	      0.48344899	      0.64242419	      0.39951855	    -16.91314438	     20.28190304	     20.28190304	     18.09546888	      2.92398356	     -3.96655214	     25.13612642	     -5.38308431	      0.59360590	     26.89321470	     26.89321470	      8.27393399	    -15.71707374	      5.79345288	     -8.24900091	      4.13421927	      3.74839784	     29.57747291	    -15.87825550	     -9.63057468	     60.34217064	     45.58418382	      0.00000000	      0.00000000	     -0.77271949	     -8.47269058	      1.11307987	     29.75389193	     45.40259618	      0.00000000	      0.00000000
     11.08942857	     -3.77838614	     -4.48121033	      3.96809677	      1.02606127	      0.92445417	      0.48028970	      1.31224301	     -0.34785849	    -16.65520378	     22.27159717	     22.27159717	     17.84097730	      2.64449851	     -4.65362067	     24.62999678	     -5.19429123	      0.18071186	     26.85172821	     26.85172821	      8.76464030	    -15.61426492	      5.95213525	     -8.22571105	      4.05800065	      3.76873017	     28.22203520	    -16.10992733	     -9.22973873	     58.61476229	     45.62123726	      0.00000000	      0.00000000	     -0.05543193	     -8.58597614	      1.10568498	     30.18182778	     45.42106957	      0.00000000	      0.00000000
     11.10271429	     -3.74836770	     -4.39126628	      3.65624777	      1.02647201	      0.92518671	      0.47715089	      2.03581308	     -1.07046407	    -16.28133238	     24.33372554	     24.33372554	     16.93118545	      2.05401462	     -6.84401082	     24.07273782	     -5.04618070	     -0.28342189	     26.81511798	     26.81511798	      9.43874898	    -15.36256894	      6.49850237	     -8.20971643	      4.01988804	      3.37419215	     27.74158774	    -16.15867421	     -7.80338228	     54.95186255	     45.68307676	      0.00000000	      0.00000000	      0.34211436	     -8.83815323	      1.28973546	     30.97624208	     45.42677312	      0.00000000	      0.00000000
     11.11600000	     -3.71309117	     -4.22002807	      3.32786537	      1.02677321	      0.92590845	      0.47403422	      3.03769479	     -1.95964746	    -15.83979299	     26.94710146	     26.94710146	     16.42503081	      1.54421371	     -7.62745299	     23.40578086	     -4.83146901	     -0.87712660	     26.57840159	     26.57840159	      9.78988054	    -15.10798432	      6.33862232	     -8.32788374	      3.90026109	      3.28410613	     26.22520127	    -16.23465917	     -7.56697048	     53.81697392	     45.70450941	      0.00000000	      0.00000000	      1.05512461	     -9.02492678	      1.21412255	     31.57028167	     45.45251397	      0.00000000	      0.00000000
